<svg id="svg" version="1.1" xmlns="http://www.w3.org/2000/svg" xmlns:xlink="http://www.w3.org/1999/xlink" width="400" height="430.7692307692308" viewBox="0, 0, 400,430.7692307692308"><g id="svgg"><path id="path0" d="M92.623 7.668 C 93.160 9.248,93.600 10.698,93.600 10.890 C 93.600 11.268,88.730 10.845,88.400 10.438 C 88.290 10.302,87.660 10.171,87.000 10.147 C 86.340 10.123,83.190 9.976,80.000 9.820 C 71.566 9.406,61.046 10.481,60.280 11.835 C 59.821 12.647,58.068 13.448,56.087 13.751 C 55.145 13.895,53.633 14.551,52.727 15.207 C 51.821 15.863,50.784 16.400,50.422 16.400 C 48.930 16.400,45.054 22.782,43.377 28.000 C 41.117 35.032,41.818 54.218,44.385 55.592 C 46.385 56.662,47.328 54.581,48.400 46.724 C 50.169 33.763,53.044 27.600,57.320 27.600 C 58.656 27.600,65.793 29.364,67.951 30.227 C 68.776 30.557,71.891 31.513,74.873 32.350 C 78.539 33.380,80.923 34.296,82.230 35.178 C 86.225 37.874,91.184 36.135,93.558 31.204 C 95.105 27.991,96.576 28.349,99.341 32.609 C 101.353 35.708,104.059 45.925,103.409 47.970 C 103.038 49.139,104.301 54.479,105.149 55.327 C 109.814 59.991,111.246 34.261,106.876 24.318 C 105.767 21.796,105.484 17.200,106.437 17.200 C 106.637 17.200,107.133 16.867,107.539 16.461 C 107.946 16.054,109.039 15.600,109.969 15.451 C 111.939 15.136,111.944 14.586,109.985 13.536 C 108.111 12.531,104.240 12.560,101.504 13.600 C 98.825 14.618,98.912 14.633,98.594 13.100 C 98.445 12.385,97.801 11.136,97.162 10.323 C 96.523 9.511,96.000 8.656,96.000 8.423 C 96.000 8.191,95.742 8.000,95.427 8.000 C 95.112 8.000,94.470 7.460,93.999 6.799 C 92.110 4.146,91.546 4.502,92.623 7.668 M57.800 11.578 C 56.920 11.995,56.313 12.350,56.451 12.368 C 56.840 12.418,59.600 11.214,59.600 10.995 C 59.600 10.727,59.599 10.727,57.800 11.578 M57.800 48.272 C 55.113 48.876,54.400 49.281,54.400 50.204 C 54.400 51.378,55.375 51.723,57.207 51.198 C 59.034 50.674,63.402 50.694,65.352 51.236 C 67.238 51.759,68.528 50.929,67.751 49.692 C 66.992 48.484,60.794 47.600,57.800 48.272 M85.890 48.492 C 83.762 48.936,82.932 49.880,83.722 50.961 C 84.154 51.551,84.473 51.576,86.391 51.165 C 88.319 50.751,89.945 50.776,95.600 51.306 C 96.465 51.387,96.600 51.238,96.600 50.203 C 96.600 48.316,91.018 47.424,85.890 48.492 M64.093 60.400 C 64.093 61.170,64.175 61.485,64.276 61.100 C 64.376 60.715,64.376 60.085,64.276 59.700 C 64.175 59.315,64.093 59.630,64.093 60.400 M94.093 60.400 C 94.093 61.170,94.175 61.485,94.276 61.100 C 94.376 60.715,94.376 60.085,94.276 59.700 C 94.175 59.315,94.093 59.630,94.093 60.400 M67.251 81.558 C 66.488 82.044,66.744 82.498,68.699 84.123 C 73.011 87.707,78.242 87.614,82.900 83.871 C 85.356 81.898,84.649 80.842,81.504 81.789 C 77.509 82.991,72.065 82.846,68.400 81.439 C 68.070 81.312,67.553 81.366,67.251 81.558 M59.600 98.053 C 51.168 101.782,40.619 112.374,30.619 127.151 C 28.519 130.255,26.800 132.964,26.800 133.171 C 26.800 133.378,29.095 134.969,31.900 136.707 C 38.935 141.065,38.844 141.021,39.259 140.280 C 39.560 139.742,44.235 133.506,46.362 130.806 C 46.793 130.259,47.235 129.901,47.344 130.010 C 47.540 130.207,48.400 148.096,48.400 151.985 C 48.400 154.440,47.974 154.423,55.200 152.256 L 61.000 150.517 61.006 146.959 C 61.013 143.294,62.333 137.253,63.400 136.000 C 63.681 135.670,64.547 134.128,65.323 132.574 C 66.857 129.504,72.050 124.400,73.640 124.400 C 74.994 124.400,76.530 126.267,76.210 127.524 C 76.059 128.116,75.957 129.357,75.983 130.282 C 76.022 131.682,75.791 132.229,74.615 133.531 C 73.792 134.442,73.200 135.514,73.200 136.095 C 73.200 136.643,72.840 137.550,72.400 138.109 C 71.387 139.397,71.395 139.462,72.588 139.761 C 74.018 140.120,74.465 141.279,74.589 144.948 C 74.650 146.736,74.923 149.370,75.196 150.800 C 75.828 154.105,75.309 156.235,73.339 158.415 C 71.943 159.960,71.096 160.328,66.200 161.520 C 65.320 161.734,61.180 163.079,57.000 164.508 L 49.400 167.107 49.448 173.854 C 49.502 181.425,50.300 207.835,50.645 213.468 L 50.870 217.137 60.435 217.140 C 68.346 217.142,70.000 217.046,70.000 216.585 C 70.000 215.562,71.513 215.200,75.800 215.200 C 80.142 215.200,81.600 215.560,81.600 216.632 C 81.600 217.311,100.204 217.441,100.622 216.765 C 100.830 216.428,101.373 200.783,101.916 179.460 C 102.240 166.737,102.663 168.148,98.105 166.743 C 94.625 165.670,90.140 163.898,86.600 162.196 C 85.060 161.456,83.224 160.641,82.520 160.385 C 78.804 159.033,76.784 154.557,78.013 150.397 C 78.240 149.629,78.479 147.217,78.545 145.039 C 78.668 140.941,79.285 139.600,81.044 139.600 C 81.819 139.600,81.739 139.199,80.754 138.152 C 80.289 137.657,79.882 136.707,79.848 136.041 C 79.811 135.295,79.311 134.328,78.542 133.516 C 75.800 130.618,76.544 124.400,79.632 124.400 C 80.933 124.400,86.277 129.469,87.363 131.734 C 87.908 132.870,88.807 134.610,89.360 135.600 C 91.423 139.296,92.580 144.421,92.060 147.568 C 91.807 149.100,91.600 150.536,91.600 150.758 C 91.600 151.766,101.856 155.281,102.370 154.449 C 102.550 154.158,102.813 150.023,102.955 145.260 C 103.277 134.441,103.612 129.200,103.981 129.200 C 104.138 129.200,106.299 131.898,108.784 135.196 L 113.301 141.191 115.950 139.329 C 117.408 138.304,119.590 136.774,120.800 135.929 C 122.010 135.083,123.438 134.052,123.974 133.638 L 124.949 132.884 123.189 130.142 C 112.392 113.323,103.176 103.576,93.980 99.250 C 88.800 96.814,88.800 96.814,88.800 98.873 C 88.799 102.363,85.330 107.497,81.746 109.312 C 73.702 113.386,63.408 108.054,62.510 99.349 C 62.263 96.960,62.167 96.917,59.600 98.053 M81.627 349.145 C 81.355 350.765,80.865 352.835,80.538 353.745 C 80.012 355.206,78.432 361.706,78.409 362.500 C 78.404 362.665,84.316 362.800,91.547 362.800 L 104.695 362.800 104.009 359.500 C 103.632 357.685,103.020 355.320,102.648 354.245 C 102.276 353.170,101.767 350.971,101.517 349.359 L 101.061 346.427 91.591 346.314 L 82.122 346.200 81.627 349.145 M50.193 348.500 C 50.037 349.655,49.495 351.950,48.987 353.600 C 48.480 355.250,47.857 357.680,47.605 359.000 C 47.352 360.320,47.055 361.715,46.945 362.100 C 46.758 362.757,47.568 362.800,60.000 362.800 C 72.431 362.800,73.242 362.757,73.057 362.100 C 72.948 361.715,72.738 360.770,72.588 360.000 C 72.439 359.230,71.818 356.800,71.208 354.600 C 70.598 352.400,69.970 349.655,69.812 348.500 L 69.525 346.400 60.000 346.400 L 50.475 346.400 50.193 348.500 " stroke="none" fill="#e1462e" fill-rule="evenodd"></path><path id="path1" d="M0.000 215.200 L 0.000 430.400 200.000 430.400 L 400.000 430.400 400.000 215.200 L 400.000 0.000 200.000 0.000 L 0.000 0.000 0.000 215.200 M95.007 7.154 C 97.065 9.194,98.021 10.497,98.560 11.997 C 99.140 13.609,99.437 13.989,99.949 13.770 C 104.518 11.819,108.917 11.810,110.972 13.747 C 112.807 15.478,112.771 15.901,110.788 15.928 C 106.713 15.984,105.029 19.745,107.186 23.973 C 109.502 28.512,110.393 37.733,109.479 47.700 C 109.204 50.703,109.244 51.200,109.765 51.200 C 110.833 51.200,113.126 53.579,113.827 55.414 C 115.512 59.827,113.708 62.990,108.022 65.594 C 107.667 65.757,107.239 67.073,106.912 69.011 C 104.844 81.256,101.988 86.003,92.569 92.846 C 89.488 95.084,88.223 96.800,89.654 96.800 C 90.751 96.800,97.788 100.508,100.464 102.496 C 113.797 112.402,130.045 137.410,136.602 158.118 C 141.237 172.755,134.173 175.736,109.073 169.737 C 105.813 168.958,103.067 168.400,102.969 168.498 C 102.001 169.466,101.206 220.485,101.203 281.812 L 101.200 347.025 102.986 354.165 C 105.098 362.609,104.219 361.428,108.800 361.980 C 114.599 362.678,122.000 364.732,122.000 365.643 C 122.000 365.841,118.089 366.000,113.209 366.000 L 104.417 366.000 104.886 364.971 C 105.647 363.300,104.982 363.212,91.600 363.212 C 78.111 363.212,77.739 363.261,78.375 364.933 L 78.780 366.000 75.886 366.000 L 72.992 366.000 72.996 364.700 L 73.000 363.400 61.000 363.284 C 46.290 363.142,44.747 363.387,46.880 365.520 C 47.253 365.893,45.342 366.000,38.280 366.000 C 32.962 366.000,29.200 365.846,29.200 365.629 C 29.200 364.729,37.099 362.671,44.200 361.721 L 46.600 361.400 47.693 357.200 C 50.682 345.717,50.401 353.733,50.394 280.104 C 50.391 243.857,50.220 211.230,50.013 207.600 C 49.806 203.970,49.450 195.060,49.222 187.800 C 48.994 180.540,48.701 172.952,48.569 170.938 L 48.331 167.276 47.266 167.621 C 12.626 178.843,5.924 173.510,19.549 145.569 C 31.081 121.920,47.994 101.947,60.583 97.111 C 62.946 96.203,62.805 95.920,58.324 92.584 C 49.406 85.944,46.805 81.807,44.758 71.000 C 43.737 65.613,43.633 65.387,42.047 65.069 C 35.912 63.842,35.208 53.794,41.085 51.339 C 42.370 50.802,42.399 50.738,42.104 49.093 C 41.398 45.156,41.803 31.590,42.726 28.240 C 44.480 21.883,47.803 17.157,51.881 15.221 C 53.376 14.511,54.913 13.766,55.295 13.565 C 55.677 13.364,56.361 13.200,56.814 13.200 C 57.847 13.200,60.000 12.112,60.000 11.590 C 60.000 11.375,60.450 11.200,61.000 11.200 C 61.550 11.200,62.000 11.033,62.000 10.828 C 62.000 10.306,59.846 10.974,58.502 11.913 C 57.343 12.723,54.400 13.379,54.400 12.827 C 54.400 11.693,63.420 9.071,64.026 10.029 C 64.335 10.516,64.389 10.512,64.394 10.000 C 64.398 9.533,64.952 9.397,66.900 9.387 C 68.275 9.381,72.640 9.328,76.600 9.271 C 80.560 9.214,83.890 9.187,84.000 9.212 C 84.110 9.237,85.260 9.318,86.556 9.391 C 87.852 9.465,89.292 9.707,89.756 9.929 C 91.397 10.716,93.200 11.163,93.200 10.783 C 93.200 9.855,91.024 4.933,90.350 4.336 C 89.937 3.971,89.600 3.458,89.600 3.197 C 89.600 2.409,91.974 4.146,95.007 7.154 M105.900 11.487 C 105.295 11.578,104.305 11.578,103.700 11.487 C 103.095 11.395,103.590 11.320,104.800 11.320 C 106.010 11.320,106.505 11.395,105.900 11.487 M103.845 134.100 C 103.718 136.355,103.565 142.057,103.507 146.771 L 103.400 155.342 106.200 156.087 C 111.813 157.580,122.000 159.195,122.000 158.592 C 122.000 157.206,114.915 143.437,113.413 141.904 C 112.926 141.407,110.684 138.525,108.431 135.500 C 106.179 132.475,104.277 130.000,104.206 130.000 C 104.135 130.000,103.973 131.845,103.845 134.100 M43.798 134.999 C 42.039 137.398,39.959 140.000,39.177 140.781 C 36.808 143.142,28.471 157.944,29.014 158.823 C 29.280 159.252,37.824 157.333,46.600 154.873 L 47.800 154.536 47.649 144.368 C 47.566 138.776,47.385 133.398,47.247 132.418 L 46.995 130.636 43.798 134.999 M70.880 216.480 C 70.100 217.260,70.232 224.250,71.033 224.557 C 72.499 225.120,80.327 224.816,80.971 224.171 C 81.844 223.299,81.848 218.132,80.977 216.889 C 80.248 215.848,71.852 215.508,70.880 216.480 M69.695 295.500 C 69.805 346.597,69.844 349.108,70.563 351.400 C 70.978 352.720,71.701 355.240,72.170 357.000 L 73.024 360.200 75.012 360.128 C 76.105 360.089,77.360 360.043,77.800 360.027 C 78.475 360.002,78.774 359.328,79.719 355.699 C 82.121 346.469,81.969 350.576,81.985 294.100 L 82.000 242.000 75.790 242.000 L 69.580 242.000 69.695 295.500 " stroke="none" fill="#fbfbfb" fill-rule="evenodd"></path><path id="path2" d="M58.431 57.836 C 56.193 59.718,57.256 63.267,60.227 63.836 C 62.091 64.193,64.000 62.454,64.000 60.400 C 64.000 58.647,62.255 56.800,60.600 56.800 C 60.084 56.800,59.108 57.266,58.431 57.836 M88.431 57.836 C 86.098 59.799,87.130 63.206,90.246 63.829 C 92.063 64.193,94.004 62.446,93.987 60.464 C 93.959 57.221,90.888 55.768,88.431 57.836 M50.968 217.322 C 50.472 217.600,50.394 226.450,50.404 282.022 L 50.414 346.400 59.761 346.400 L 69.107 346.400 69.348 345.500 C 69.481 345.005,69.592 321.515,69.595 293.300 L 69.600 242.000 75.800 242.000 L 82.000 242.000 82.005 293.300 C 82.008 321.515,82.119 345.005,82.252 345.500 C 82.548 346.606,100.499 346.961,100.918 345.869 C 101.030 345.577,101.038 316.479,100.937 281.207 L 100.752 217.075 99.276 217.077 C 98.464 217.078,94.155 217.106,89.700 217.139 L 81.600 217.200 81.600 220.371 C 81.600 224.731,81.510 224.800,75.800 224.800 C 70.090 224.800,70.000 224.731,70.000 220.371 C 70.000 218.110,69.857 217.195,69.500 217.184 C 63.518 216.992,51.397 217.082,50.968 217.322 " stroke="none" fill="#222424" fill-rule="evenodd"></path><path id="path3" d="M90.047 3.571 C 89.648 3.817,89.677 3.944,90.176 4.135 C 90.530 4.271,90.983 4.791,91.184 5.291 C 91.446 5.944,91.556 6.009,91.575 5.524 C 91.589 5.152,91.417 4.734,91.193 4.596 C 90.970 4.458,90.883 4.190,91.000 4.000 C 91.310 3.498,90.648 3.199,90.047 3.571 M76.400 9.200 L 69.000 9.427 76.724 9.514 C 81.792 9.570,84.362 9.463,84.200 9.200 C 84.064 8.980,83.918 8.839,83.876 8.886 C 83.834 8.934,80.470 9.075,76.400 9.200 M64.394 9.857 C 64.389 10.455,64.317 10.488,64.026 10.029 C 63.656 9.444,59.933 9.969,58.400 10.823 C 57.878 11.113,59.747 11.059,60.400 10.765 C 60.510 10.715,61.500 10.632,62.600 10.579 C 65.355 10.446,68.737 9.721,66.933 9.650 C 66.236 9.623,65.381 9.491,65.033 9.357 C 64.597 9.190,64.398 9.345,64.394 9.857 M85.700 9.450 C 86.085 9.565,86.400 9.840,86.400 10.061 C 86.400 10.300,86.887 10.357,87.600 10.200 C 88.355 10.034,88.800 10.097,88.800 10.368 C 88.800 10.609,89.464 10.779,90.300 10.754 C 91.164 10.727,91.461 10.624,91.000 10.511 C 90.560 10.402,90.020 10.173,89.800 10.002 C 89.580 9.830,88.410 9.589,87.200 9.466 C 85.990 9.343,85.315 9.336,85.700 9.450 M54.792 12.405 C 53.995 12.898,54.589 13.358,55.421 12.892 C 55.796 12.682,55.936 12.408,55.732 12.282 C 55.529 12.156,55.106 12.211,54.792 12.405 M107.600 12.555 C 107.600 12.640,108.130 12.787,108.779 12.882 C 109.427 12.977,109.867 12.908,109.755 12.728 C 109.557 12.407,107.600 12.250,107.600 12.555 M55.445 13.528 C 55.333 13.708,55.773 13.777,56.421 13.682 C 57.070 13.587,57.600 13.440,57.600 13.355 C 57.600 13.050,55.643 13.207,55.445 13.528 M50.821 15.637 C 50.062 16.044,48.982 16.873,48.421 17.480 L 47.400 18.583 48.600 17.536 C 49.260 16.961,50.189 16.373,50.664 16.229 C 51.139 16.086,51.746 15.706,52.013 15.385 C 52.588 14.691,52.584 14.692,50.821 15.637 M44.065 24.217 C 43.395 25.688,43.523 26.002,44.247 24.665 C 44.586 24.040,44.788 23.454,44.696 23.363 C 44.605 23.271,44.321 23.656,44.065 24.217 M106.828 23.800 C 106.828 24.020,107.086 24.650,107.400 25.200 C 107.714 25.750,107.972 26.020,107.972 25.800 C 107.972 25.580,107.714 24.950,107.400 24.400 C 107.086 23.850,106.828 23.580,106.828 23.800 M54.882 28.900 C 52.213 30.737,50.346 36.041,49.025 45.534 C 47.690 55.129,46.592 57.202,43.674 55.639 C 43.061 55.311,43.013 55.601,43.140 58.839 C 43.296 62.807,43.111 63.030,41.247 61.124 C 39.404 59.239,39.466 56.854,41.409 54.911 C 43.300 53.020,43.141 50.583,41.172 51.270 C 35.250 53.334,35.916 63.843,42.047 65.069 C 43.633 65.387,43.737 65.613,44.758 71.000 C 46.806 81.809,49.405 85.944,58.330 92.589 C 61.317 94.812,62.395 95.837,62.221 96.289 C 62.031 96.785,62.096 96.818,62.539 96.450 C 62.976 96.088,63.774 96.334,66.226 97.588 C 73.571 101.344,78.392 101.296,85.487 97.397 C 87.087 96.517,88.233 96.098,88.320 96.360 C 88.561 97.084,89.200 96.857,89.200 96.047 C 89.200 95.562,90.403 94.420,92.569 92.846 C 101.988 86.003,104.844 81.256,106.912 69.011 C 107.239 67.073,107.667 65.757,108.022 65.594 C 113.708 62.990,115.512 59.827,113.827 55.414 C 113.142 53.621,110.840 51.200,109.819 51.200 C 109.515 51.200,109.201 51.004,109.122 50.765 C 109.042 50.527,108.941 51.152,108.898 52.156 C 108.836 53.572,108.983 54.070,109.554 54.375 C 111.581 55.460,111.688 59.924,109.725 61.496 C 108.082 62.811,107.919 62.659,108.010 59.900 C 108.147 55.734,108.105 55.515,107.265 55.965 C 105.042 57.155,103.207 53.825,102.985 48.200 C 102.838 44.484,101.798 38.716,100.972 37.039 C 100.657 36.400,100.400 35.666,100.400 35.407 C 100.400 34.725,97.969 31.150,96.800 30.113 C 95.618 29.064,95.200 28.982,95.200 29.800 C 95.200 30.130,95.061 30.400,94.891 30.400 C 94.721 30.400,94.239 31.036,93.820 31.814 C 91.090 36.885,86.174 38.151,81.434 35.005 C 80.270 34.232,78.976 33.597,78.559 33.593 C 77.605 33.585,73.994 32.584,65.647 30.016 C 58.289 27.753,56.776 27.596,54.882 28.900 M41.693 34.800 C 41.693 35.570,41.775 35.885,41.876 35.500 C 41.976 35.115,41.976 34.485,41.876 34.100 C 41.775 33.715,41.693 34.030,41.693 34.800 M109.744 39.200 C 109.744 41.290,109.812 42.145,109.894 41.100 C 109.976 40.055,109.976 38.345,109.894 37.300 C 109.812 36.255,109.744 37.110,109.744 39.200 M41.714 43.800 C 41.717 44.900,41.795 45.303,41.887 44.695 C 41.979 44.086,41.977 43.186,41.882 42.695 C 41.787 42.203,41.711 42.700,41.714 43.800 M65.789 48.388 C 67.847 48.865,68.613 49.831,67.841 50.975 C 67.230 51.881,67.004 51.890,63.162 51.160 C 60.919 50.734,60.141 50.753,57.962 51.287 C 55.056 52.000,54.000 51.712,54.000 50.210 C 54.000 48.283,60.803 47.232,65.789 48.388 M96.300 48.741 C 98.909 50.154,96.811 52.197,93.604 51.365 C 92.406 51.054,90.874 50.800,90.200 50.800 C 89.526 50.800,87.994 51.054,86.796 51.365 C 83.905 52.115,81.522 50.284,83.665 48.960 C 85.307 47.945,94.536 47.785,96.300 48.741 M63.500 57.809 C 65.801 60.457,63.674 64.730,60.281 64.275 C 56.446 63.760,55.388 58.867,58.710 57.004 C 60.219 56.157,62.381 56.521,63.500 57.809 M93.558 57.777 C 95.370 59.588,94.541 63.110,92.083 64.044 C 87.650 65.730,84.580 59.320,88.710 57.004 C 90.171 56.185,92.307 56.525,93.558 57.777 M80.971 72.229 C 83.491 74.748,75.972 77.180,72.000 75.129 C 68.805 73.480,69.840 71.074,73.083 72.612 C 74.724 73.391,77.498 73.197,78.916 72.204 C 79.995 71.448,80.193 71.451,80.971 72.229 M69.650 81.461 C 72.167 82.412,78.718 82.400,81.540 81.438 C 85.234 80.180,86.000 82.247,82.711 84.600 C 77.898 88.043,73.527 88.068,68.724 84.681 C 65.098 82.124,65.716 79.975,69.650 81.461 M92.400 98.200 C 92.950 98.514,93.580 98.772,93.800 98.772 C 94.020 98.772,93.750 98.514,93.200 98.200 C 92.650 97.886,92.020 97.628,91.800 97.628 C 91.580 97.628,91.850 97.886,92.400 98.200 M63.276 101.100 C 66.493 112.816,84.046 113.390,87.756 101.901 C 88.533 99.497,88.411 99.262,86.923 100.285 C 79.889 105.120,72.951 105.340,65.485 100.964 C 62.637 99.295,62.778 99.286,63.276 101.100 M96.000 99.750 C 96.000 99.844,96.641 100.299,97.424 100.761 C 98.207 101.223,98.736 101.420,98.599 101.198 C 98.331 100.764,96.000 99.466,96.000 99.750 M53.000 101.435 L 51.800 102.466 53.100 101.606 C 53.815 101.133,54.400 100.668,54.400 100.573 C 54.400 100.273,54.231 100.378,53.000 101.435 M50.175 103.700 L 49.000 105.000 50.300 103.825 C 51.512 102.730,51.784 102.400,51.475 102.400 C 51.406 102.400,50.821 102.985,50.175 103.700 M104.000 105.800 C 105.195 107.010,106.263 108.000,106.373 108.000 C 106.483 108.000,105.595 107.010,104.400 105.800 C 103.205 104.590,102.137 103.600,102.027 103.600 C 101.917 103.600,102.805 104.590,104.000 105.800 M44.782 108.700 C 41.520 112.057,37.803 116.201,40.028 114.000 C 42.618 111.438,48.528 105.200,48.365 105.200 C 48.265 105.200,46.653 106.775,44.782 108.700 M118.800 123.200 C 119.270 123.860,119.744 124.400,119.854 124.400 C 119.964 124.400,119.670 123.860,119.200 123.200 C 118.730 122.540,118.256 122.000,118.146 122.000 C 118.036 122.000,118.330 122.540,118.800 123.200 M32.400 123.600 C 31.930 124.260,31.636 124.800,31.746 124.800 C 31.856 124.800,32.330 124.260,32.800 123.600 C 33.270 122.940,33.564 122.400,33.454 122.400 C 33.344 122.400,32.870 122.940,32.400 123.600 M69.700 127.529 C 68.105 129.012,66.800 130.362,66.800 130.531 C 66.800 130.699,66.009 132.224,65.043 133.919 C 62.423 138.512,61.028 143.712,61.356 147.655 L 61.616 150.762 58.708 151.611 C 57.108 152.079,54.396 152.897,52.679 153.431 C 48.961 154.586,48.408 154.620,48.375 153.700 C 48.354 153.135,48.283 153.163,48.007 153.847 C 47.819 154.313,47.245 154.783,46.732 154.892 C 46.220 155.001,43.190 155.771,40.000 156.603 C 33.722 158.241,29.304 159.170,29.042 158.909 C 28.606 158.472,34.214 147.651,37.236 143.100 C 38.075 141.835,38.546 140.798,38.281 140.795 C 38.017 140.793,36.360 139.898,34.600 138.806 C 32.840 137.715,30.275 136.172,28.900 135.377 C 27.525 134.582,26.400 133.724,26.400 133.472 C 26.400 131.996,18.690 146.814,16.343 152.800 C 11.369 165.489,11.823 170.368,18.202 172.802 C 21.899 174.214,35.051 171.912,46.600 167.834 L 48.200 167.268 48.437 169.134 L 48.674 171.000 48.737 168.949 L 48.800 166.897 53.100 165.466 C 55.465 164.679,58.654 163.579,60.187 163.022 C 61.720 162.464,64.510 161.625,66.387 161.157 C 73.468 159.392,74.202 158.009,70.770 152.897 L 69.114 150.431 69.174 145.742 L 69.234 141.053 70.772 139.384 C 72.619 137.380,73.269 136.245,72.988 135.513 C 72.873 135.214,73.416 134.256,74.195 133.384 C 75.342 132.101,75.604 131.496,75.574 130.200 C 75.553 129.320,75.658 128.123,75.807 127.539 C 76.009 126.749,75.864 126.264,75.239 125.639 C 73.869 124.269,72.825 124.625,69.700 127.529 M77.765 125.797 C 77.303 126.502,77.205 127.117,77.429 127.897 C 77.604 128.504,77.707 129.630,77.658 130.400 C 77.587 131.514,77.863 132.127,79.006 133.397 C 79.837 134.320,80.369 135.277,80.267 135.666 C 80.048 136.503,81.086 138.247,82.725 139.794 L 83.974 140.973 83.941 145.696 L 83.907 150.419 82.361 152.813 C 79.654 157.001,79.731 158.640,82.695 159.920 C 83.743 160.372,86.310 161.543,88.400 162.522 C 90.490 163.500,94.494 165.088,97.299 166.050 L 102.397 167.800 102.478 171.000 L 102.559 174.200 102.697 171.300 C 102.773 169.705,102.987 168.400,103.172 168.400 C 103.357 168.400,106.095 169.020,109.255 169.778 C 140.890 177.363,144.753 171.063,128.313 138.700 C 126.330 134.795,124.631 131.600,124.539 131.600 C 124.447 131.600,124.559 131.950,124.788 132.378 C 125.261 133.262,125.904 132.715,116.457 139.457 C 114.796 140.643,113.645 141.200,113.134 141.067 C 112.450 140.888,112.474 140.983,113.326 141.835 C 114.879 143.388,122.000 157.145,122.000 158.592 C 122.000 159.192,111.865 157.588,106.200 156.092 C 103.517 155.383,103.390 155.294,103.153 153.976 L 102.905 152.600 102.853 153.900 C 102.778 155.743,101.883 155.600,93.449 152.397 L 91.098 151.504 91.407 149.252 C 92.045 144.600,91.076 138.909,89.091 135.646 C 88.638 134.901,87.841 133.436,87.321 132.391 C 84.798 127.329,79.264 123.510,77.765 125.797 M29.693 127.500 C 28.657 128.996,28.321 129.600,28.523 129.600 C 28.617 129.600,29.170 128.880,29.753 128.000 C 30.936 126.212,30.884 125.779,29.693 127.500 M103.674 131.900 L 103.748 134.200 103.895 132.090 C 103.993 130.683,104.190 130.070,104.483 130.251 C 104.748 130.415,104.810 130.340,104.638 130.062 C 103.988 129.009,103.604 129.739,103.674 131.900 M46.349 131.100 C 45.856 131.729,45.869 131.746,46.474 131.272 C 47.077 130.801,47.165 130.906,47.307 132.272 L 47.466 133.800 47.533 132.100 C 47.605 130.284,47.234 129.971,46.349 131.100 M44.400 133.600 C 43.703 134.480,43.223 135.200,43.333 135.200 C 43.443 135.200,44.103 134.480,44.800 133.600 C 45.497 132.720,45.977 132.000,45.867 132.000 C 45.757 132.000,45.097 132.720,44.400 133.600 M40.000 139.600 C 39.530 140.260,39.236 140.800,39.346 140.800 C 39.456 140.800,39.930 140.260,40.400 139.600 C 40.870 138.940,41.164 138.400,41.054 138.400 C 40.944 138.400,40.470 138.940,40.000 139.600 M47.728 143.600 C 47.728 145.030,47.801 145.615,47.889 144.900 C 47.978 144.185,47.978 143.015,47.889 142.300 C 47.801 141.585,47.728 142.170,47.728 143.600 M103.342 145.000 C 103.341 146.980,103.408 147.840,103.492 146.912 C 103.576 145.984,103.577 144.364,103.495 143.312 C 103.412 142.260,103.343 143.020,103.342 145.000 M48.942 178.200 C 48.941 180.180,49.008 181.040,49.092 180.112 C 49.176 179.184,49.177 177.564,49.095 176.512 C 49.012 175.460,48.943 176.220,48.942 178.200 M102.154 181.600 C 102.154 184.350,102.218 185.475,102.296 184.100 C 102.374 182.725,102.374 180.475,102.296 179.100 C 102.218 177.725,102.154 178.850,102.154 181.600 M49.353 189.800 C 49.353 192.440,49.418 193.468,49.497 192.084 C 49.575 190.701,49.574 188.541,49.495 187.284 C 49.416 186.028,49.352 187.160,49.353 189.800 M101.748 194.800 C 101.748 197.110,101.814 198.055,101.895 196.900 C 101.976 195.745,101.976 193.855,101.895 192.700 C 101.814 191.545,101.748 192.490,101.748 194.800 M49.744 200.000 C 49.744 202.090,49.812 202.945,49.894 201.900 C 49.976 200.855,49.976 199.145,49.894 198.100 C 49.812 197.055,49.744 197.910,49.744 200.000 M101.337 208.600 C 101.339 210.360,101.409 211.030,101.493 210.089 C 101.578 209.149,101.577 207.709,101.491 206.889 C 101.405 206.070,101.336 206.840,101.337 208.600 M50.131 209.000 C 50.133 210.540,50.205 211.121,50.292 210.291 C 50.379 209.461,50.377 208.201,50.289 207.491 C 50.200 206.781,50.129 207.460,50.131 209.000 M70.398 216.404 C 70.155 216.858,70.026 218.640,70.102 220.504 L 70.237 223.800 70.319 220.380 C 70.424 215.965,70.379 216.000,75.857 216.000 C 80.051 216.000,80.397 216.060,80.977 216.889 C 81.412 217.510,81.600 217.594,81.600 217.169 C 81.600 215.360,71.332 214.659,70.398 216.404 M100.993 266.000 C 100.993 289.430,101.041 299.015,101.100 287.300 C 101.159 275.585,101.159 256.415,101.100 244.700 C 101.041 232.985,100.993 242.570,100.993 266.000 M46.700 360.739 C 46.538 361.358,45.995 361.565,43.949 361.789 C 37.862 362.454,29.200 364.709,29.200 365.629 C 29.200 365.846,32.962 366.000,38.280 366.000 C 45.342 366.000,47.253 365.893,46.880 365.520 C 46.186 364.826,46.291 363.600,47.044 363.600 C 47.540 363.600,47.471 363.409,46.744 362.770 C 46.225 362.313,46.006 362.042,46.257 362.167 C 46.689 362.382,47.440 360.507,47.070 360.137 C 46.978 360.044,46.811 360.315,46.700 360.739 M72.987 363.099 L 73.000 365.997 75.890 365.999 L 78.780 366.000 78.375 364.933 C 78.152 364.346,78.111 363.761,78.284 363.633 C 78.458 363.505,78.615 362.638,78.634 361.707 L 78.668 360.013 75.821 360.107 L 72.973 360.200 72.987 363.099 M104.533 362.031 C 104.570 362.784,104.770 363.522,104.977 363.671 C 105.209 363.838,105.173 364.341,104.886 364.971 L 104.417 366.000 113.209 366.000 C 118.089 366.000,122.000 365.841,122.000 365.643 C 122.000 364.733,114.606 362.680,108.800 361.978 C 106.710 361.725,104.880 361.325,104.733 361.090 C 104.587 360.854,104.497 361.277,104.533 362.031 " stroke="none" fill="#fbc394" fill-rule="evenodd"></path><path id="path4" d="M90.658 4.100 C 91.326 4.595,91.798 5.218,91.708 5.485 C 91.617 5.752,91.718 6.282,91.931 6.663 C 92.234 7.203,92.296 7.062,92.214 6.021 C 92.116 4.769,90.809 3.232,89.822 3.209 C 89.615 3.204,89.991 3.605,90.658 4.100 M93.774 6.500 C 94.390 7.325,94.970 8.000,95.062 8.000 C 95.414 8.000,94.431 6.554,93.563 5.796 C 92.817 5.144,92.855 5.272,93.774 6.500 M96.794 9.803 C 98.387 11.721,98.521 11.845,98.086 10.996 C 97.859 10.553,97.252 9.834,96.737 9.398 C 95.833 8.634,95.835 8.648,96.794 9.803 M68.905 9.887 C 69.514 9.979,70.414 9.977,70.905 9.882 C 71.397 9.787,70.900 9.711,69.800 9.714 C 68.700 9.717,68.297 9.795,68.905 9.887 M82.400 9.825 C 83.827 10.140,86.400 10.195,86.400 9.911 C 86.400 9.740,85.365 9.621,84.100 9.646 C 82.835 9.672,82.070 9.752,82.400 9.825 M56.487 11.735 C 55.986 12.014,55.701 12.367,55.854 12.521 C 56.316 12.983,56.869 12.835,56.558 12.332 C 56.362 12.015,56.489 11.949,56.955 12.127 C 57.418 12.305,57.548 12.240,57.355 11.927 C 57.162 11.615,57.293 11.550,57.755 11.727 C 58.163 11.884,58.342 11.830,58.197 11.595 C 57.885 11.090,57.609 11.112,56.487 11.735 M104.305 11.483 C 104.802 11.579,105.522 11.575,105.905 11.475 C 106.287 11.375,105.880 11.296,105.000 11.301 C 104.120 11.305,103.807 11.387,104.305 11.483 M104.500 12.687 C 105.105 12.778,106.095 12.778,106.700 12.687 C 107.305 12.595,106.810 12.520,105.600 12.520 C 104.390 12.520,103.895 12.595,104.500 12.687 M52.600 15.035 L 51.400 16.066 52.700 15.206 C 53.415 14.733,54.000 14.268,54.000 14.173 C 54.000 13.873,53.831 13.978,52.600 15.035 M111.443 14.568 C 111.621 15.032,111.287 15.241,110.047 15.439 C 109.150 15.582,108.098 15.957,107.708 16.272 C 107.048 16.805,107.054 16.819,107.800 16.469 C 108.240 16.262,109.365 15.966,110.300 15.811 C 111.917 15.543,112.537 14.779,111.605 14.203 C 111.379 14.064,111.310 14.221,111.443 14.568 M106.114 19.000 C 106.117 20.100,106.195 20.503,106.287 19.895 C 106.379 19.286,106.377 18.386,106.282 17.895 C 106.187 17.403,106.111 17.900,106.114 19.000 M46.181 20.830 C 45.237 22.326,44.406 24.075,44.866 23.600 C 45.303 23.148,47.578 19.200,47.401 19.200 C 47.296 19.200,46.747 19.934,46.181 20.830 M43.445 26.650 C 43.090 27.691,42.813 28.735,42.829 28.971 C 42.845 29.207,43.205 28.424,43.628 27.232 C 44.051 26.040,44.328 24.995,44.244 24.910 C 44.159 24.826,43.800 25.608,43.445 26.650 M54.768 28.563 C 53.404 29.490,50.778 33.674,50.818 34.856 C 50.829 35.155,51.456 34.140,52.213 32.600 C 53.786 29.400,55.037 28.322,57.598 27.961 L 59.400 27.707 57.793 27.653 C 56.688 27.617,55.742 27.901,54.768 28.563 M108.770 31.004 C 109.104 32.848,109.454 34.280,109.547 34.186 C 109.786 33.947,108.738 28.009,108.422 27.814 C 108.279 27.725,108.435 29.161,108.770 31.004 M61.200 28.516 C 61.514 28.846,68.521 30.813,68.709 30.624 C 68.802 30.532,67.735 30.105,66.339 29.677 C 63.400 28.775,60.911 28.213,61.200 28.516 M94.525 29.300 C 94.320 29.575,93.820 30.566,93.414 31.503 C 92.737 33.065,90.246 35.551,88.800 36.106 C 88.326 36.289,88.348 36.343,88.909 36.368 C 89.836 36.410,92.851 33.614,93.820 31.814 C 94.239 31.036,94.721 30.400,94.891 30.400 C 95.061 30.400,95.200 30.130,95.200 29.800 C 95.200 29.470,95.335 29.206,95.500 29.213 C 96.565 29.258,100.400 34.291,100.400 35.645 C 100.400 36.034,100.599 36.476,100.843 36.626 C 102.208 37.470,99.323 32.096,97.354 30.127 C 95.947 28.721,95.135 28.483,94.525 29.300 M71.200 31.671 C 72.575 32.249,77.665 33.590,78.400 33.569 C 78.730 33.559,77.200 33.029,75.000 32.391 C 70.912 31.204,69.415 30.921,71.200 31.671 M80.575 34.359 C 80.697 34.557,81.439 35.098,82.223 35.560 C 83.007 36.023,83.548 36.239,83.425 36.041 C 83.303 35.843,82.561 35.302,81.777 34.840 C 80.993 34.377,80.452 34.161,80.575 34.359 M41.737 39.000 C 41.739 40.760,41.809 41.430,41.893 40.489 C 41.978 39.549,41.977 38.109,41.891 37.289 C 41.805 36.470,41.736 37.240,41.737 39.000 M85.305 36.687 C 85.914 36.779,86.814 36.777,87.305 36.682 C 87.797 36.587,87.300 36.511,86.200 36.514 C 85.100 36.517,84.697 36.595,85.305 36.687 M49.692 38.728 C 49.043 41.542,47.920 49.968,48.121 50.523 C 48.216 50.786,48.426 49.920,48.588 48.600 C 48.750 47.280,49.226 44.147,49.645 41.637 C 50.438 36.895,50.462 35.393,49.692 38.728 M101.600 38.500 C 101.600 38.555,101.884 40.040,102.230 41.800 C 102.577 43.560,102.918 46.440,102.989 48.200 C 103.060 49.960,103.321 51.850,103.568 52.400 C 104.006 53.372,104.012 53.367,103.779 52.209 C 103.647 51.554,103.476 49.484,103.398 47.609 C 103.271 44.530,102.185 38.400,101.768 38.400 C 101.676 38.400,101.600 38.445,101.600 38.500 M109.314 44.600 C 109.317 45.700,109.395 46.103,109.487 45.495 C 109.579 44.886,109.577 43.986,109.482 43.495 C 109.387 43.003,109.311 43.500,109.314 44.600 M108.893 49.200 C 108.893 49.970,108.975 50.285,109.076 49.900 C 109.176 49.515,109.176 48.885,109.076 48.500 C 108.975 48.115,108.893 48.430,108.893 49.200 M54.700 48.832 C 53.728 49.398,53.809 51.070,54.834 51.618 C 55.293 51.864,55.757 51.977,55.864 51.869 C 55.972 51.761,55.687 51.554,55.230 51.410 C 53.958 51.006,54.132 49.364,55.500 48.865 C 56.105 48.644,56.330 48.454,56.000 48.444 C 55.670 48.433,55.085 48.608,54.700 48.832 M96.600 50.200 C 96.600 50.928,96.735 51.440,96.900 51.338 C 97.065 51.236,97.200 50.724,97.200 50.200 C 97.200 49.676,97.065 49.164,96.900 49.062 C 96.735 48.960,96.600 49.472,96.600 50.200 M42.493 51.200 C 42.493 51.970,42.575 52.285,42.676 51.900 C 42.776 51.515,42.776 50.885,42.676 50.500 C 42.575 50.115,42.493 50.430,42.493 51.200 M67.386 51.223 C 67.240 51.458,66.561 51.549,65.862 51.428 L 64.600 51.209 65.739 51.651 C 66.667 52.011,66.999 51.973,67.525 51.446 C 67.881 51.091,68.053 50.800,67.909 50.800 C 67.765 50.800,67.529 50.991,67.386 51.223 M108.633 51.700 C 108.555 51.975,108.287 52.954,108.037 53.876 C 107.740 54.969,107.297 55.642,106.761 55.812 C 106.309 55.956,106.028 56.161,106.136 56.269 C 106.243 56.377,106.707 56.264,107.166 56.018 C 108.123 55.506,108.150 55.633,108.010 59.900 C 107.919 62.659,108.082 62.811,109.725 61.496 C 111.717 59.901,111.577 55.458,109.499 54.346 C 108.869 54.009,108.753 53.646,108.929 52.561 C 109.140 51.261,108.931 50.651,108.633 51.700 M42.834 53.060 C 42.815 53.313,42.170 54.150,41.400 54.920 C 39.466 56.854,39.408 59.242,41.247 61.124 C 43.111 63.030,43.296 62.807,43.140 58.839 C 43.013 55.601,43.061 55.311,43.674 55.639 C 44.666 56.171,45.060 56.078,44.268 55.500 C 43.892 55.224,43.423 54.459,43.226 53.800 C 43.030 53.140,42.853 52.807,42.834 53.060 M47.010 53.967 C 46.866 54.423,46.477 55.066,46.145 55.398 C 45.814 55.729,45.731 56.000,45.961 56.000 C 46.431 56.000,47.766 53.633,47.466 53.333 C 47.360 53.227,47.155 53.512,47.010 53.967 M93.126 57.912 C 93.716 58.524,94.276 58.974,94.368 58.911 C 94.599 58.755,92.735 56.800,92.356 56.800 C 92.188 56.800,92.535 57.301,93.126 57.912 M56.801 61.446 C 56.799 62.118,58.391 64.005,58.929 63.968 C 59.228 63.948,59.206 63.859,58.867 63.724 C 58.574 63.607,57.990 62.946,57.569 62.256 C 57.148 61.565,56.802 61.201,56.801 61.446 M63.113 63.059 C 62.751 63.421,61.767 63.850,60.927 64.013 C 59.428 64.303,59.424 64.309,60.678 64.354 C 61.706 64.391,64.978 62.471,63.986 62.413 C 63.868 62.406,63.475 62.696,63.113 63.059 M78.916 72.204 C 77.498 73.197,74.724 73.391,73.083 72.612 C 69.840 71.074,68.805 73.480,72.000 75.129 C 75.972 77.180,83.491 74.748,80.971 72.229 C 80.193 71.451,79.995 71.448,78.916 72.204 M66.880 81.280 C 64.002 84.158,74.534 88.524,79.417 86.478 C 84.717 84.256,86.977 79.756,82.051 81.232 C 81.140 81.505,80.477 81.810,80.577 81.910 C 80.677 82.011,81.313 81.899,81.991 81.663 C 84.623 80.746,85.161 82.054,82.900 83.871 C 78.173 87.669,72.952 87.698,68.442 83.952 C 66.168 82.063,66.521 80.658,69.030 81.611 C 69.592 81.825,70.265 81.986,70.526 81.970 C 71.032 81.937,68.487 80.882,67.780 80.830 C 67.549 80.814,67.144 81.016,66.880 81.280 M78.100 82.276 C 78.485 82.376,79.115 82.376,79.500 82.276 C 79.885 82.175,79.570 82.093,78.800 82.093 C 78.030 82.093,77.715 82.175,78.100 82.276 M74.505 82.687 C 75.114 82.779,76.014 82.777,76.505 82.682 C 76.997 82.587,76.500 82.511,75.400 82.514 C 74.300 82.517,73.897 82.595,74.505 82.687 M61.200 97.059 C 60.210 97.595,59.760 97.915,60.200 97.771 C 62.334 97.072,62.271 97.030,62.507 99.318 C 62.706 101.246,64.075 104.800,64.618 104.800 C 64.730 104.800,64.566 104.305,64.254 103.700 C 63.654 102.533,62.764 99.600,63.011 99.600 C 63.091 99.600,64.205 100.214,65.485 100.964 C 72.951 105.340,79.889 105.120,86.923 100.285 C 88.388 99.278,88.558 99.530,87.833 101.633 C 87.504 102.588,87.295 103.428,87.368 103.501 C 87.703 103.836,88.800 100.209,88.800 98.765 C 88.800 97.056,88.830 97.045,91.100 97.898 C 91.375 98.001,91.600 97.990,91.600 97.874 C 91.600 97.757,90.925 97.442,90.100 97.173 C 89.275 96.904,88.492 96.519,88.361 96.316 C 88.229 96.114,86.924 96.607,85.461 97.411 C 78.398 101.293,73.561 101.339,66.238 97.594 C 64.523 96.717,63.093 96.019,63.060 96.043 C 63.027 96.066,62.190 96.523,61.200 97.059 M93.633 98.949 C 94.045 99.317,96.400 100.400,96.400 100.221 C 96.400 99.990,94.182 98.800,93.753 98.800 C 93.596 98.800,93.542 98.867,93.633 98.949 M55.300 100.046 C 53.937 100.919,53.495 101.506,54.700 100.843 C 55.618 100.339,57.056 99.227,56.800 99.219 C 56.690 99.216,56.015 99.588,55.300 100.046 M51.585 102.829 L 50.200 104.058 51.700 102.981 C 53.026 102.030,53.457 101.600,53.085 101.600 C 53.022 101.600,52.347 102.153,51.585 102.829 M103.400 105.600 C 104.483 106.700,105.460 107.600,105.570 107.600 C 105.680 107.600,104.883 106.700,103.800 105.600 C 102.717 104.500,101.740 103.600,101.630 103.600 C 101.520 103.600,102.317 104.500,103.400 105.600 M85.361 105.904 C 84.443 106.970,82.771 108.283,81.561 108.888 C 80.372 109.483,79.634 109.977,79.920 109.985 C 81.279 110.024,85.873 106.532,86.840 104.725 C 87.443 103.599,87.133 103.846,85.361 105.904 M45.192 108.700 L 41.400 112.600 45.300 108.808 C 48.922 105.286,49.382 104.800,49.092 104.800 C 49.033 104.800,47.278 106.555,45.192 108.700 M66.209 106.809 C 67.910 108.551,71.258 110.421,72.579 110.366 C 73.276 110.336,73.249 110.285,72.400 110.025 C 70.309 109.385,67.264 107.592,66.278 106.420 C 65.713 105.749,65.113 105.200,64.945 105.200 C 64.776 105.200,65.345 105.924,66.209 106.809 M74.500 110.687 C 75.105 110.778,76.095 110.778,76.700 110.687 C 77.305 110.595,76.810 110.520,75.600 110.520 C 74.390 110.520,73.895 110.595,74.500 110.687 M110.949 113.316 C 112.020 114.572,112.982 115.600,113.086 115.600 C 113.354 115.600,110.023 111.661,109.464 111.317 C 109.209 111.161,109.877 112.060,110.949 113.316 M116.800 120.800 C 117.270 121.460,117.744 122.000,117.854 122.000 C 117.964 122.000,117.670 121.460,117.200 120.800 C 116.730 120.140,116.256 119.600,116.146 119.600 C 116.036 119.600,116.330 120.140,116.800 120.800 M119.600 124.800 C 120.070 125.460,120.544 126.000,120.654 126.000 C 120.764 126.000,120.470 125.460,120.000 124.800 C 119.530 124.140,119.056 123.600,118.946 123.600 C 118.836 123.600,119.130 124.140,119.600 124.800 M73.891 124.845 C 75.461 125.299,76.180 126.488,75.760 127.937 C 75.591 128.522,75.493 129.630,75.542 130.400 C 75.612 131.510,75.338 132.126,74.215 133.373 C 73.437 134.238,72.800 135.104,72.800 135.297 C 72.800 135.490,73.526 134.810,74.413 133.785 C 75.772 132.215,76.020 131.658,75.981 130.260 C 75.957 129.347,76.059 128.116,76.210 127.524 C 76.546 126.206,74.954 124.380,73.518 124.436 C 72.786 124.465,72.861 124.548,73.891 124.845 M79.724 124.806 C 80.721 125.106,81.495 125.731,84.941 129.020 C 85.413 129.471,86.102 130.281,86.472 130.820 C 87.128 131.777,87.138 131.779,86.923 130.894 C 86.613 129.614,80.599 124.391,79.486 124.434 C 78.731 124.464,78.767 124.519,79.724 124.806 M69.324 127.514 C 67.264 129.438,66.089 130.937,65.182 132.800 C 63.643 135.959,64.223 135.532,65.970 132.219 C 66.736 130.767,68.274 128.863,69.913 127.336 C 71.391 125.960,72.510 124.832,72.400 124.831 C 72.290 124.829,70.906 126.036,69.324 127.514 M77.454 125.541 C 76.276 126.843,76.958 131.838,78.544 133.516 C 79.310 134.327,79.811 135.295,79.848 136.041 C 79.882 136.707,80.289 137.657,80.754 138.152 C 81.739 139.199,81.819 139.600,81.044 139.600 C 79.285 139.600,78.668 140.941,78.545 145.039 C 78.479 147.217,78.240 149.629,78.013 150.397 C 76.784 154.557,78.801 159.028,82.520 160.387 C 83.224 160.645,85.240 161.544,87.000 162.385 C 90.331 163.977,96.924 166.526,99.000 167.024 C 101.126 167.535,99.897 166.953,96.000 165.603 C 93.910 164.879,90.490 163.489,88.400 162.514 C 86.310 161.540,83.743 160.372,82.695 159.920 C 79.731 158.640,79.654 157.001,82.361 152.813 L 83.907 150.419 83.941 145.696 L 83.974 140.973 82.725 139.794 C 81.086 138.247,80.048 136.503,80.267 135.666 C 80.369 135.277,79.837 134.320,79.006 133.397 C 77.863 132.127,77.587 131.514,77.658 130.400 C 77.707 129.630,77.604 128.504,77.429 127.897 C 77.205 127.117,77.303 126.502,77.765 125.797 C 78.537 124.619,78.394 124.502,77.454 125.541 M26.667 132.667 C 26.001 133.332,26.580 134.035,28.900 135.377 C 30.275 136.172,32.840 137.715,34.600 138.806 C 36.360 139.898,37.970 140.793,38.178 140.795 C 38.386 140.798,35.956 139.194,32.778 137.230 C 29.055 134.930,27.020 133.436,27.056 133.030 C 27.117 132.331,27.058 132.276,26.667 132.667 M123.400 134.032 C 121.030 135.824,120.727 136.302,122.880 134.854 C 123.913 134.159,124.869 133.412,125.003 133.195 C 125.374 132.594,125.139 132.717,123.400 134.032 M103.350 137.400 C 103.351 139.820,103.416 140.758,103.496 139.485 C 103.576 138.212,103.575 136.232,103.494 135.085 C 103.414 133.938,103.349 134.980,103.350 137.400 M88.000 133.838 C 88.000 133.969,88.359 134.580,88.797 135.196 C 89.236 135.812,89.765 136.740,89.972 137.258 C 90.180 137.776,90.361 137.962,90.375 137.671 C 90.389 137.380,89.933 136.345,89.362 135.371 C 88.390 133.713,88.000 133.274,88.000 133.838 M47.734 138.400 C 47.734 140.050,47.805 140.725,47.891 139.900 C 47.978 139.075,47.978 137.725,47.891 136.900 C 47.805 136.075,47.734 136.750,47.734 138.400 M63.269 136.116 C 62.839 136.635,61.863 140.397,62.098 140.632 C 62.167 140.701,62.587 139.597,63.032 138.179 C 63.476 136.760,63.807 135.600,63.769 135.600 C 63.730 135.600,63.505 135.832,63.269 136.116 M117.117 138.490 C 115.201 139.853,113.699 141.032,113.778 141.111 C 113.933 141.266,118.193 138.360,119.933 136.913 C 121.892 135.283,120.637 135.986,117.117 138.490 M72.800 136.690 C 72.800 136.923,71.997 138.006,71.017 139.097 L 69.233 141.081 69.173 145.774 L 69.113 150.467 70.527 152.533 C 73.896 157.457,73.424 159.308,68.461 160.645 C 67.437 160.920,66.973 161.158,67.429 161.173 C 72.468 161.337,76.246 156.292,75.196 150.800 C 74.923 149.370,74.650 146.736,74.589 144.948 C 74.465 141.279,74.018 140.120,72.588 139.761 C 71.387 139.460,71.387 139.456,72.472 137.989 C 72.951 137.340,73.221 136.688,73.072 136.538 C 72.922 136.389,72.800 136.457,72.800 136.690 M40.800 138.000 C 40.330 138.660,40.036 139.200,40.146 139.200 C 40.256 139.200,40.730 138.660,41.200 138.000 C 41.670 137.340,41.964 136.800,41.854 136.800 C 41.744 136.800,41.270 137.340,40.800 138.000 M90.418 138.757 C 90.408 139.063,90.784 140.593,91.253 142.157 C 92.000 144.647,92.050 145.276,91.653 147.224 C 90.881 151.012,90.981 151.426,92.850 152.173 C 93.757 152.536,94.575 152.758,94.667 152.667 C 94.758 152.575,94.083 152.200,93.167 151.833 C 91.546 151.185,91.508 151.126,91.750 149.683 C 92.479 145.347,92.437 144.207,91.435 141.200 C 90.885 139.550,90.428 138.451,90.418 138.757 M60.980 143.766 C 60.839 144.518,60.786 146.334,60.862 147.802 L 61.000 150.472 58.200 151.396 C 54.735 152.540,55.152 152.686,58.788 151.603 L 61.463 150.807 61.431 146.604 C 61.397 141.996,61.358 141.751,60.980 143.766 M102.948 148.800 C 102.948 151.110,103.014 152.055,103.095 150.900 C 103.176 149.745,103.176 147.855,103.095 146.700 C 103.014 145.545,102.948 146.490,102.948 148.800 M48.144 149.600 C 48.144 151.690,48.212 152.545,48.294 151.500 C 48.376 150.455,48.376 148.745,48.294 147.700 C 48.212 146.655,48.144 147.510,48.144 149.600 M51.200 153.412 C 49.550 153.923,48.560 154.345,49.000 154.350 C 49.440 154.355,51.060 153.937,52.600 153.420 C 56.217 152.205,55.119 152.200,51.200 153.412 M95.235 152.938 C 96.341 154.187,102.803 155.523,102.794 154.500 C 102.789 153.915,102.727 153.896,102.417 154.386 C 102.060 154.951,100.535 154.615,95.600 152.883 C 95.270 152.767,95.106 152.792,95.235 152.938 M60.859 162.788 C 59.022 163.426,57.402 164.078,57.259 164.238 C 57.117 164.397,57.270 164.435,57.600 164.322 C 57.930 164.210,59.685 163.626,61.500 163.026 C 63.315 162.425,64.800 161.859,64.800 161.767 C 64.800 161.468,64.249 161.611,60.859 162.788 M53.039 165.424 C 50.211 166.412,48.984 167.070,50.838 166.605 C 52.582 166.167,57.038 164.441,56.400 164.451 C 56.070 164.456,54.558 164.894,53.039 165.424 M48.864 170.900 C 48.931 175.165,49.102 174.681,49.291 169.699 C 49.351 168.104,49.265 166.799,49.100 166.799 C 48.935 166.800,48.829 168.645,48.864 170.900 M101.199 167.751 C 101.749 168.072,102.274 168.259,102.366 168.167 C 102.614 167.919,102.314 167.730,101.200 167.433 L 100.200 167.167 101.199 167.751 M102.148 172.800 C 102.148 175.110,102.214 176.055,102.295 174.900 C 102.376 173.745,102.376 171.855,102.295 170.700 C 102.214 169.545,102.148 170.490,102.148 172.800 M49.348 181.200 C 49.348 183.510,49.414 184.455,49.495 183.300 C 49.576 182.145,49.576 180.255,49.495 179.100 C 49.414 177.945,49.348 178.890,49.348 181.200 M101.746 187.000 C 101.747 189.200,101.814 190.049,101.895 188.887 C 101.976 187.724,101.976 185.924,101.893 184.887 C 101.811 183.849,101.745 184.800,101.746 187.000 M49.742 193.000 C 49.741 194.980,49.808 195.840,49.892 194.912 C 49.976 193.984,49.977 192.364,49.895 191.312 C 49.812 190.260,49.743 191.020,49.742 193.000 M101.342 202.200 C 101.341 204.180,101.408 205.040,101.492 204.112 C 101.576 203.184,101.577 201.564,101.495 200.512 C 101.412 199.460,101.343 200.220,101.342 202.200 M50.137 203.400 C 50.139 205.160,50.209 205.830,50.293 204.889 C 50.378 203.949,50.377 202.509,50.291 201.689 C 50.205 200.870,50.136 201.640,50.137 203.400 M100.931 214.600 C 100.933 216.140,101.005 216.721,101.092 215.891 C 101.179 215.061,101.177 213.801,101.089 213.091 C 101.000 212.381,100.929 213.060,100.931 214.600 M50.520 215.600 C 50.520 216.810,50.595 217.305,50.687 216.700 C 50.778 216.095,50.778 215.105,50.687 214.500 C 50.595 213.895,50.520 214.390,50.520 215.600 M73.516 215.497 C 74.899 215.575,77.059 215.574,78.316 215.495 C 79.572 215.416,78.440 215.352,75.800 215.353 C 73.160 215.353,72.132 215.418,73.516 215.497 M46.745 362.906 C 46.913 363.074,52.980 363.163,60.226 363.105 L 73.400 362.999 59.920 362.800 C 52.505 362.690,46.577 362.738,46.745 362.906 M84.900 363.099 C 88.585 363.165,94.615 363.165,98.300 363.099 C 101.985 363.033,98.970 362.979,91.600 362.979 C 84.230 362.979,81.215 363.033,84.900 363.099 " stroke="none" fill="#f19875" fill-rule="evenodd"></path></g></svg>